<svg width="840" height="880" viewBox="0 0 840 880" fill="none" xmlns="http://www.w3.org/2000/svg">
<g clip-path="url(#clip0_314_1592)">
<g clip-path="url(#clip1_314_1592)">
<rect width="860" height="900" transform="matrix(-1 0 0 1 860 0)" fill="url(#paint0_linear_314_1592)"/>
<g opacity="0.06">
<g opacity="0.3">
<path d="M-153.727 769.621C-103.32 806.167 -70.4214 858.581 -41.5377 904.865C-8.7507 957.279 19.687 1002.6 64.0721 1009.93C68.1984 1010.65 72.4361 1010.9 76.6739 1010.9C110.911 1010.9 151.616 989.617 203.25 944.776C241.947 911.116 274.177 880.581 302.614 853.532C362.612 796.43 405.994 755.196 453.947 741.852C502.905 728.147 556.658 742.573 639.406 791.501C706.987 831.533 787.616 859.062 860.439 866.997C894.341 870.723 925.121 870.002 949.544 864.712C975.305 859.182 993.371 849.205 1003.07 834.899C1016.34 815.304 1019.58 778.878 959.246 716.486C887.092 641.832 805.013 632.816 718.139 623.319C660.595 617.067 601.043 610.455 540.933 584.369C472.906 554.916 413.911 503.704 360.493 428.088C321.015 372.187 274.957 345.74 227.115 351.63C194.551 355.597 162.545 374.111 131.988 406.449C101.32 439.147 73.6629 484.229 50.0205 540.49C32.4003 582.205 12.9958 603.603 -9.64285 605.767C-58.6003 610.455 -115.253 521.736 -169.898 435.902C-197.22 392.985 -225.435 348.745 -252.311 317.008C-266.251 300.538 -278.965 288.397 -290.897 280.342V284.79C-253.315 311.478 -212.498 375.433 -172.686 437.945C-145.252 480.983 -116.814 525.583 -89.4914 558.041C-60.2731 592.663 -35.2925 609.614 -13.323 609.614C-11.9848 609.614 -10.6465 609.494 -9.30829 609.373C14.5571 607.089 34.9653 585.09 53.0316 542.052C76.5624 486.152 103.885 441.432 134.33 409.093C164.329 377.236 195.666 359.084 227.449 355.237C273.953 349.587 319.119 375.553 357.817 430.372C411.57 506.589 471.121 558.041 539.595 587.735C600.151 614.062 659.925 620.554 717.693 626.925C804.01 636.422 885.531 645.318 956.904 719.131C1015.56 779.84 1012.89 814.462 1000.4 832.855C982.108 859.663 929.916 871.084 860.774 863.51C788.397 855.576 708.214 828.167 640.967 788.375C557.438 738.966 503.016 724.54 453.055 738.486C404.321 752.07 360.716 793.544 300.384 851.008C271.946 878.056 239.828 908.591 201.131 942.132C143.809 991.901 100.428 1012.34 64.5182 1006.45C21.5829 999.475 -6.40875 954.754 -38.8612 902.941C-67.968 856.418 -100.978 803.763 -151.943 766.736C-194.209 736.081 -234.468 720.694 -272.05 720.694C-278.407 720.694 -284.652 721.174 -290.897 722.016V725.622C-248.631 719.491 -202.573 734.278 -153.727 769.621Z" fill="white"/>
<path d="M-228.223 1123.66C-176.589 1124.5 -118.821 1135.68 -67.8565 1145.42C5.1893 1159.48 62.7338 1170.54 69.8711 1145.06C80.5771 1106.83 45.7827 1075.21 -11.9848 1022.92C-53.3589 985.409 -104.993 938.765 -160.195 871.685C-201.681 821.314 -243.055 798.473 -282.979 804.003C-285.433 804.364 -287.998 804.844 -290.786 805.446V809.172C-288.109 808.571 -285.321 807.97 -282.533 807.609C-243.724 802.32 -203.465 824.68 -162.649 874.089C-107.223 941.41 -55.5893 988.174 -14.1037 1025.8C42.5486 1077.13 76.7854 1108.15 66.7486 1144.09C60.5034 1166.45 1.2861 1155.03 -67.1874 1141.93C-141.125 1127.74 -227.888 1111.03 -290.674 1125.46V1129.19C-273.054 1125.1 -252.2 1123.18 -228.223 1123.66Z" fill="white"/>
<path fill-rule="evenodd" clip-rule="evenodd" d="M89.0525 944.535C85.8184 944.535 82.6958 944.174 79.6848 943.333C52.3623 936 30.6158 915.202 16.7873 883.105C2.84726 850.406 -1.83659 808.21 3.40486 760.965C8.20024 718.409 22.1403 676.213 43.9983 638.946C121.728 506.107 186.298 433.256 235.925 422.437C251.872 418.95 266.481 421.956 279.083 431.453C326.344 466.842 357.172 501.293 384.361 531.676L385.362 532.795L385.605 533.067C427.645 580.063 460.89 617.228 533.684 638.705C579.742 652.29 601.489 664.792 600.039 677.054C598.924 686.551 583.311 694.125 553.535 699.655C524.651 704.944 482.942 708.19 432.981 708.912C395.287 709.513 356.144 725.261 313.208 757.359C275.738 785.489 240.274 822.155 208.937 854.613C162.656 902.58 122.174 944.535 89.0525 944.535ZM46.8979 640.869C25.3745 677.655 11.5459 719.37 6.86209 761.446C1.73215 807.97 6.30449 849.444 20.0215 881.542C33.2924 912.678 54.2582 932.874 80.577 939.847C83.3651 940.568 86.2646 940.929 89.1641 940.929C120.835 940.929 160.869 899.457 206.59 852.094L206.595 852.089C237.932 819.51 273.507 782.724 311.313 754.474C354.806 722.015 394.618 705.906 432.981 705.305C482.831 704.584 524.317 701.338 552.977 696.049C589.891 689.196 596.247 680.901 596.805 676.574C598.366 662.869 552.643 647.842 532.904 642.072C459.077 620.192 425.51 582.685 383.132 535.199L382.673 534.687C355.463 504.277 324.652 469.843 277.299 434.338C268.6 427.846 259.01 424.601 248.527 424.601C244.735 424.601 240.72 425.081 236.706 425.923C188.083 436.622 124.182 508.872 46.8979 640.869Z" fill="white"/>
<path fill-rule="evenodd" clip-rule="evenodd" d="M875.16 811.818C822.857 803.643 763.193 790.059 727.953 780.802C669.182 765.415 643.978 751.71 641.078 733.798C638.514 717.569 654.795 697.974 692.155 672.127C712.563 658.062 739.105 655.056 771.334 663.472C796.872 670.083 825.979 683.788 857.874 704.225C910.958 738.246 954.339 779.841 956.458 781.884C972.071 793.786 978.316 802.682 975.528 809.294C972.852 815.425 962.146 818.55 942.964 818.55C926.571 818.55 904.043 816.266 875.16 811.818ZM737.878 662.269C720.927 662.269 706.318 666.596 694.051 675.012C658.476 699.656 642.194 718.65 644.424 732.836C647.547 753.152 688.809 766.616 728.734 777.075C825.533 802.441 964.153 827.205 972.406 807.61C973.521 804.965 972.74 798.474 954.451 784.528L954.339 784.408C954.314 784.387 954.145 784.228 953.839 783.938C948.821 779.194 906.969 739.628 856.201 707.109C824.641 686.913 795.869 673.329 770.665 666.837C758.956 663.831 748.027 662.269 737.878 662.269Z" fill="white"/>
<path d="M1267.49 749.064C1259.57 740.168 1250.54 731.032 1240.28 721.895C1201.25 687.153 1151.73 658.541 1093.07 636.782C1019.8 609.613 932.035 593.024 832.224 587.494C775.126 584.368 665.613 573.428 573.163 535.079C475.805 494.807 421.829 435.3 412.908 358.242C402.536 269.041 412.685 213.742 444.914 184.048C480.155 151.59 543.944 150.147 639.852 179.961C706.429 200.638 760.294 229.009 803.564 251.85C846.276 274.451 880.067 292.243 910.177 295.368C942.853 298.735 968.391 284.429 992.925 248.965C1008.54 226.364 1020.92 204.966 1031.85 186.092C1053.82 147.984 1069.76 120.454 1095.75 110.236C1123.18 99.4162 1160.32 108.553 1220.09 140.771C1237.15 149.907 1252.88 160.125 1267.49 170.704V166.377C1253.33 156.158 1238.05 146.421 1221.65 137.525C1160.99 104.826 1123.07 95.6895 1094.63 106.749C1067.53 117.449 1051.47 145.339 1029.06 184.048C1018.24 202.802 1005.86 224.08 990.36 246.681C939.953 319.652 889.211 292.844 805.125 248.484C761.743 225.523 707.656 197.032 640.855 176.355C543.721 146.301 478.928 147.863 442.795 181.163C409.674 211.698 399.191 268.079 409.674 358.602C418.818 437.103 473.463 497.572 572.047 538.445C664.944 576.915 774.903 587.854 832.113 591.1C931.589 596.51 1018.91 613.1 1091.84 640.148C1150.06 661.787 1199.24 690.158 1237.94 724.54C1249.31 734.638 1259.12 744.736 1267.49 754.354V749.064Z" fill="white"/>
<path d="M1267.49 672.487C1243.85 653.372 1215.41 634.138 1183.18 615.985C1091.62 564.292 983.669 528.348 879.397 514.883C773.788 501.179 696.727 486.152 636.952 467.398C560.561 443.595 512.384 413.902 489.634 376.875C474.244 351.75 470.898 322.778 479.485 290.56C485.954 266.758 497.775 251.009 515.73 242.474C576.508 213.382 693.047 274.331 795.869 328.068C833.451 347.783 869.026 366.296 899.248 379.039C950.213 400.558 981.55 405.367 1004.08 394.908C1025.82 384.81 1038.31 361.488 1055.49 329.15C1065.86 309.675 1077.57 287.675 1094.07 263.391C1111.69 237.425 1134 223.84 1160.43 222.999C1196.56 221.917 1235.71 244.878 1267.49 270.124V265.676C1218.08 226.846 1182.51 218.791 1160.43 219.392C1132.99 220.234 1109.8 234.299 1091.51 261.228C1074.89 285.631 1063.18 307.871 1052.7 327.346C1019.02 390.46 1003.63 419.312 900.475 375.673C870.364 362.93 834.901 344.417 797.319 324.822C693.828 270.725 576.508 209.414 514.391 239.228C495.656 248.124 482.831 265.195 476.251 289.719C467.33 322.898 470.787 352.952 486.734 379.039C510.042 416.667 558.776 446.841 636.06 470.884C696.058 489.638 773.342 504.665 879.063 518.37C982.888 531.834 1090.39 567.658 1181.62 619.111C1214.29 637.624 1243.51 657.46 1267.49 677.175V672.487Z" fill="white"/>
<path fill-rule="evenodd" clip-rule="evenodd" d="M885.564 441.787C885.949 442.082 886.164 442.247 886.2 442.273C899.471 452.972 904.043 461.748 900.14 468.48C895.679 475.573 881.293 478.338 862.335 478.338C836.35 478.338 801.556 473.169 771 466.557C696.615 450.568 625.688 423.399 581.303 393.946C531.342 360.767 514.391 324.822 532.346 289.959C537.141 280.582 545.171 274.572 556.1 271.927C591.34 263.391 657.695 289.599 753.156 349.586C820.241 391.657 878.846 436.631 885.564 441.787ZM855.978 474.491C886.869 475.333 895.122 469.682 897.24 466.316C900.809 460.426 892.111 451.65 884.193 445.278C881.293 442.994 662.713 273.97 570.263 273.97C565.356 273.97 560.895 274.451 556.769 275.413C546.844 277.817 539.595 283.227 535.245 291.642C526.324 308.953 526.435 326.505 535.691 343.936C544.056 359.805 560.003 375.553 582.976 390.821C627.027 420.033 697.508 447.082 771.557 462.95C803.34 469.803 833.339 473.89 855.978 474.491Z" fill="white"/>
<path fill-rule="evenodd" clip-rule="evenodd" d="M769.472 411.354C770.279 411.893 770.727 412.192 770.777 412.219C770.872 412.301 770.978 412.391 771.094 412.49C773.02 414.125 777.552 417.974 775.237 421.716C773.788 424.12 769.327 424.962 763.305 424.962C746.8 424.962 718.808 417.989 711.671 416.186C674.534 406.569 640.075 392.744 619.555 379.159C598.924 365.455 591.786 352.111 598.255 339.488C599.816 336.483 602.492 334.439 606.061 333.477C620.559 329.39 652.676 341.532 701.634 369.302C733.835 387.566 763.043 407.063 769.472 411.354ZM712.34 412.7C750.257 422.437 770.553 422.678 772.449 419.672C772.561 419.432 772.338 417.989 768.769 415.224C765.647 413.061 651.673 336.363 612.306 336.363C610.187 336.363 608.403 336.603 606.73 337.084C603.942 337.805 602.158 339.248 601.042 341.292C595.578 351.871 602.269 363.531 621.116 376.034C641.301 389.498 675.427 403.203 712.34 412.7Z" fill="white"/>
<path fill-rule="evenodd" clip-rule="evenodd" d="M112.584 854.493C101.431 859.543 92.2868 861.586 84.8149 861.586C69.6482 861.586 61.2842 853.051 56.7118 844.275C26.9359 787.413 94.1827 604.324 185.629 532.915C212.952 511.637 237.486 502.982 258.452 507.309C275.738 510.916 290.57 523.058 302.614 543.494C314.435 563.45 320.123 586.532 319.342 610.335C318.562 634.017 311.313 656.738 298.488 675.973L295.031 681.142L294.829 681.444C252.291 745.185 208.34 811.044 112.584 854.493ZM187.637 535.92C146.263 568.259 105.558 628.006 78.7929 695.688C53.7008 759.162 46.1174 816.745 59.6114 842.472C68.6446 859.662 85.9302 862.548 111.245 851.007C206.261 807.849 249.977 742.332 292.243 678.857L295.7 673.688C308.19 655.055 315.216 633.055 315.997 610.094C316.777 587.012 311.201 564.652 299.826 545.418C288.34 525.943 274.177 514.282 257.895 510.916C254.549 510.194 251.092 509.834 247.635 509.834C229.903 509.834 209.829 518.609 187.637 535.92Z" fill="white"/>
<path fill-rule="evenodd" clip-rule="evenodd" d="M143.921 771.906C137.006 775.032 131.319 776.354 126.746 776.354C118.048 776.354 113.252 771.665 110.576 766.737C102.881 752.07 107.565 721.054 122.732 685.831C138.568 649.285 162.321 616.106 186.41 597.352C202.357 584.97 216.632 579.921 229.011 582.445C239.159 584.489 247.969 591.582 254.995 603.603C268.935 627.406 268.043 657.701 252.541 680.902C227.895 717.809 201.019 745.939 143.921 771.906ZM188.417 600.358C164.886 618.751 141.467 651.33 125.854 687.395C111.357 721.055 106.561 751.47 113.587 765.055C118.271 774.071 128.085 775.273 142.694 768.661C199.123 743.055 225.554 715.285 249.865 678.86C264.586 656.86 265.478 628.128 252.207 605.648C245.627 594.588 237.709 587.976 228.453 586.053C226.557 585.692 224.661 585.452 222.654 585.452C212.506 585.452 201.131 590.501 188.417 600.358Z" fill="white"/>
<path d="M169.124 707.95C170.574 707.95 172.358 707.59 174.477 706.628C190.982 699.175 198.677 691 205.814 680.301C210.498 673.328 210.833 664.072 206.595 656.979C204.365 653.252 201.688 651.088 198.454 650.367C194.662 649.525 190.202 651.088 185.406 654.815C170.797 666.235 158.307 694.606 163.548 704.584C164.329 706.027 165.89 707.95 169.124 707.95Z" stroke="white" stroke-width="5.90625"/>
<path d="M1267.49 1390.54C1235.59 1388.97 1204.59 1384.53 1177.16 1377.31C1141.02 1367.82 1110.69 1353.51 1087.05 1335C1058.05 1312.28 1038.98 1282.94 1030.17 1247.6C1017.91 1197.95 998.501 1151.07 974.078 1111.88C945.417 1065.83 910.289 1030.37 869.472 1006.33C794.419 961.967 703.084 957.76 598.143 993.825C471.01 1037.46 372.091 1083.27 299.826 1116.81C207.599 1159.48 156.745 1183.04 145.147 1157.2C144.144 1154.91 144.032 1152.51 144.924 1149.87C151.504 1130.27 206.037 1103.58 269.27 1072.81C316.331 1049.85 369.749 1023.76 411.793 996.109C460.415 964.131 485.954 935.159 489.857 907.63C495.321 868.92 509.819 841.751 531.677 829.128C556.546 814.823 590.56 818.549 632.937 840.188C710.779 879.86 900.809 927.225 1016.23 927.225C1056.05 927.225 1087.05 921.575 1101.43 907.99C1110.13 899.816 1112.59 889.116 1108.68 876.133C1095.86 833.216 1110.69 788.856 1143.14 773.108C1183.85 753.392 1228.79 782.004 1267.49 827.806V821.795C1252.32 804.244 1236.93 790.539 1221.43 780.681C1192.99 762.529 1164.67 758.682 1141.8 769.862C1107.79 786.331 1092.18 832.494 1105.56 877.215C1109.02 888.756 1106.9 898.012 1099.32 905.225C1075.34 927.826 997.832 929.749 886.535 910.395C790.404 893.685 686.802 863.51 634.499 836.822C591.117 814.703 556.1 811.096 530.339 825.883C507.477 838.986 492.422 867.117 486.734 907.028C478.259 966.776 361.72 1023.76 268.043 1069.44C201.577 1101.9 149.051 1127.5 142.025 1148.54C140.798 1152.15 140.91 1155.52 142.359 1158.64C148.604 1172.59 163.883 1174.99 192.097 1166.45C218.082 1158.52 254.883 1141.57 301.387 1120.05C373.541 1086.63 472.46 1040.83 599.37 997.191C703.418 961.486 793.861 965.574 868.134 1009.33C908.393 1033.14 943.187 1068.24 971.513 1113.68C995.713 1152.63 1015.01 1199.15 1027.16 1248.32C1036.08 1284.39 1055.6 1314.44 1085.26 1337.64C1109.24 1356.4 1140.02 1370.82 1176.6 1380.56C1204.37 1387.89 1235.7 1392.46 1267.82 1393.9V1390.54H1267.49Z" fill="white"/>
<path fill-rule="evenodd" clip-rule="evenodd" d="M294.585 930.952C300.607 920.012 306.963 910.154 313.655 901.499C334.955 873.849 366.961 859.423 399.191 862.789C418.149 864.833 427.74 872.046 427.851 884.428C428.074 925.422 312.428 1011.02 260.348 1017.03C252.764 1017.99 246.965 1018.35 242.616 1018.35C233.248 1018.35 230.126 1016.55 229.011 1013.9C226.78 1008.37 234.81 1000.44 248.192 987.213C262.467 973.147 281.983 953.913 294.585 930.952ZM361.72 961.126C400.64 931.313 424.84 901.86 424.729 884.549C424.617 874.33 416.03 868.319 399.191 866.516C396.179 866.155 393.168 866.035 390.157 866.035C362.054 866.035 335.066 879.74 316.442 903.783C309.863 912.198 303.618 922.056 297.707 932.755C284.997 955.987 265.387 975.323 251.033 989.475L250.645 989.858L250.14 990.359C240.705 999.699 231.041 1009.27 232.356 1012.34C233.137 1014.26 238.601 1015.94 260.236 1013.42C284.102 1010.66 323.914 990.098 361.72 961.126Z" fill="white"/>
<path d="M-181.942 287.074C-156.85 336.843 -129.973 388.055 -103.766 425.443C-74.8823 466.436 -49.7902 486.392 -26.9285 486.392C-26.7055 486.392 -26.4824 486.392 -26.2594 486.392C-3.50922 486.031 16.5644 466.316 35.0768 426.404C73.9974 342.614 120.055 291.402 168.344 278.539C201.354 269.763 235.256 278.418 269.047 304.505C295.031 324.581 313.543 331.193 325.364 324.822C342.873 315.445 343.877 280.462 344.992 240.069C346.219 195.71 347.557 145.339 372.203 122.258C383.689 111.558 399.079 107.591 419.265 109.996C472.125 116.487 522.421 107.832 564.687 85.231C604.834 63.7124 635.949 30.8934 654.572 -9.73969C672.304 -48.3291 677.434 -91.8473 669.628 -135.366C666.394 -153.518 660.929 -171.31 653.457 -188.741H649.666C675.761 -129.355 677.211 -66.8423 651.673 -11.3025C633.384 28.6092 602.827 60.8272 563.349 81.9852C521.64 104.345 471.902 112.76 419.711 106.389C398.856 103.865 382.128 108.192 370.084 119.493C344.323 143.536 342.985 194.748 341.646 239.829C340.643 277.457 339.639 313.04 323.915 321.456C313.209 327.226 295.923 320.614 270.942 301.38C236.26 274.692 201.465 265.796 167.451 274.812C118.159 288.036 71.3209 339.849 32.0658 424.601C14.111 463.19 -4.95898 482.185 -26.2594 482.545C-26.4824 482.545 -26.7055 482.545 -26.9285 482.545C-75.4399 482.545 -128.635 385.05 -179.042 285.03C-209.933 223.72 -247.516 181.644 -290.897 159.284V163.251C-248.631 185.852 -212.052 227.206 -181.942 287.074Z" fill="white"/>
<path d="M-139.899 132.716C-120.606 132.716 -103.655 129.711 -89.7145 123.58C-57.9312 109.635 -42.0953 81.1436 -42.6529 38.5871C-43.2105 -3.12787 -32.8391 -34.1436 -10.9811 -56.1431C42.8832 -110.721 158.864 -101.344 281.76 -91.2462C299.826 -89.8036 318.562 -88.2408 336.962 -86.9184C354.917 -85.5961 371.422 -84.995 386.589 -84.995C455.843 -84.995 495.098 -98.339 503.685 -124.907C509.708 -143.66 499.671 -166.381 483.612 -188.501H479.262C495.767 -166.501 506.25 -144.021 500.563 -125.989C490.749 -95.4538 435.881 -83.4322 337.297 -90.4047C318.896 -91.7271 300.161 -93.2899 282.094 -94.7325C158.53 -104.831 41.768 -114.328 -13.2115 -58.6677C-35.7386 -35.8266 -46.4446 -3.96938 -45.887 38.8275C-45.3294 79.701 -60.4962 107.23 -90.8297 120.454C-129.862 137.525 -193.317 129.711 -265.136 99.0558C-273.723 95.4493 -282.199 91.4821 -290.674 87.3948V91.3619C-282.645 95.3291 -274.504 99.0558 -266.363 102.422C-219.413 122.378 -175.697 132.716 -139.899 132.716Z" fill="white"/>
<path d="M-203.8 18.2708C-163.652 15.626 -129.639 -7.09486 -102.539 -49.2907L-98.0785 -56.2633C-65.18 -107.475 -48.675 -133.202 -24.252 -143.901C0.170959 -154.6 33.2925 -150.753 99.3126 -142.939C107.342 -141.977 115.929 -141.016 124.962 -139.934C203.138 -130.797 259.79 -127.792 298.153 -130.677C335.067 -133.442 356.032 -141.496 364.062 -156.043C368.969 -164.939 368.746 -175.758 364.731 -188.501H361.274C365.289 -176.239 365.735 -166.021 361.162 -157.846C353.802 -144.502 333.171 -136.808 297.93 -134.163C259.79 -131.398 203.361 -134.404 125.297 -143.54C116.264 -144.622 107.677 -145.584 99.6472 -146.546C33.0695 -154.48 -0.275116 -158.447 -25.5902 -147.267C-50.9054 -136.087 -67.6334 -110.12 -100.867 -58.3069L-105.327 -51.3344C-131.869 -10.1003 -164.991 12.1397 -204.023 14.6643C-224.097 15.9866 -253.203 12.2599 -290.897 -6.73421V-2.76707C-257.776 13.7025 -231.234 18.5112 -211.495 18.5112C-208.818 18.5112 -206.253 18.391 -203.8 18.2708Z" fill="white"/>
<path d="M529.447 -99.9003C507.254 -52.8958 409.562 -59.2673 408.447 -59.3875C353.69 -59.3875 302.837 -63.5951 258.006 -67.442C191.317 -73.0921 133.661 -77.9008 91.06 -65.9994C68.5329 -59.7481 51.0242 -49.0489 37.6417 -33.4208C23.1441 -16.5905 13.3303 6.13034 7.53123 35.8237C-11.7618 135.122 -62.2805 147.024 -102.985 156.521C-127.52 162.291 -148.709 167.22 -155.735 190.782C-162.091 212.301 -154.731 255.098 -136.776 299.818C-117.595 347.785 -91.4989 384.932 -66.9644 399.117C-59.0464 403.685 -51.1285 405.969 -43.6566 405.969C-29.382 405.969 -15.888 397.795 -4.06688 381.806C13.8879 357.522 28.4971 331.075 42.6602 305.469C69.0905 257.623 91.8406 216.388 127.193 207.132C148.939 201.482 174.254 208.454 204.365 228.771C244.289 255.579 271.946 263.994 289.009 254.497C310.197 242.716 312.316 206.29 314.547 167.581C317.558 115.647 320.68 61.9106 370.195 64.3149C381.571 64.7958 392.5 65.1565 403.094 65.1565C510.154 65.1565 579.631 37.8674 609.63 -16.2299C633.272 -58.6662 627.25 -109.878 618.105 -145.222C613.756 -162.172 608.291 -177.079 603.496 -188.62H599.816C604.723 -177.079 610.41 -161.571 614.871 -144.14C631.042 -81.2668 619.332 -40.8742 606.73 -18.0331C574.389 40.1515 494.764 66.7193 370.307 60.8287C346.553 59.7467 330.717 70.5662 321.907 94.0084C314.212 114.325 312.651 141.374 311.201 167.581C309.082 205.208 306.963 240.672 287.447 251.492C271.5 260.388 244.958 251.972 206.037 225.885C175.035 205.088 148.939 197.875 126.3 203.886C89.6102 213.503 66.414 255.338 39.6491 303.906C25.5975 329.392 10.9884 355.719 -6.85489 379.762C-24.2521 403.204 -43.9912 408.614 -65.6261 396.112C-89.4915 382.287 -115.141 345.861 -133.988 298.616C-151.274 255.338 -158.857 212.541 -152.835 192.105C-146.367 170.466 -127.074 165.898 -102.539 160.247C-82.0196 155.439 -58.8234 150.029 -38.0806 132.958C-14.1037 113.243 1.8437 81.7463 10.5423 36.6652C21.3598 -19.2353 46.3403 -49.7702 91.6176 -62.3929C110.576 -67.6824 132.769 -69.6059 157.415 -69.6059C187.302 -69.6059 221.093 -66.7207 257.448 -63.7153C302.391 -59.9886 353.244 -55.6608 408.001 -55.6608C408.001 -55.6608 408.001 -55.6608 408.112 -55.6608C408.335 -55.6608 433.539 -53.8575 461.085 -58.1853C498.555 -63.9557 522.421 -77.4199 532.234 -98.0971C542.829 -120.578 536.026 -150.872 511.938 -188.5H507.923C532.458 -151.233 539.595 -121.539 529.447 -99.9003Z" fill="white"/>
<path d="M537.922 -56.2633C519.633 -31.619 464.319 -21.4007 378.113 -26.6902C312.651 -30.6573 251.984 -42.3183 251.426 -42.4385C251.092 -42.5587 214.067 -49.6514 172.358 -40.8757C147.712 -35.8266 126.3 -26.3295 108.569 -12.6249C86.3761 4.44582 69.9827 28.0081 59.9458 57.3409C40.5413 114.203 18.7948 153.033 -6.63184 176.114C-28.7129 196.19 -50.2363 201.48 -70.31 205.207C-99.6398 210.616 -109.565 230.813 -112.688 246.801C-118.933 278.058 -103.878 320.253 -80.4583 337.204C-74.1017 341.772 -67.6335 344.056 -61.3883 344.056C-55.5893 344.056 -49.9017 342.133 -44.5488 338.166C-22.5793 322.057 -0.0521393 291.041 23.8132 258.342C69.202 195.95 116.152 131.514 163.325 163.852C170.239 168.541 176.931 173.229 183.287 177.797C217.859 202.201 245.293 221.556 262.578 212.42C272.838 207.01 278.637 192.704 280.756 167.218C285.105 114.564 293.135 74.8924 318.227 52.5322C336.07 36.5435 361.497 30.6529 396.068 34.2594C492.868 44.4778 556.658 25.9645 585.764 -20.5591C609.072 -57.8261 605.057 -106.273 597.586 -140.415C593.348 -159.769 587.549 -176.84 582.976 -188.741H579.408C583.98 -176.96 590.002 -159.529 594.351 -139.573C601.6 -106.153 605.503 -58.7879 582.976 -22.6028C554.65 22.7187 491.864 40.6309 396.403 30.6529C360.939 26.9262 334.732 33.1775 316.108 49.7673C290.235 72.969 281.871 113.362 277.411 166.978C275.403 190.781 270.162 204.606 261.129 209.294C245.516 217.469 218.862 198.715 185.183 174.912C178.715 170.344 172.024 165.656 165.11 160.967C142.694 145.579 118.494 149.426 91.1715 172.748C67.3062 192.945 43.8869 225.163 21.2482 256.299C-2.39407 288.877 -24.8097 319.532 -46.3331 335.401C-58.9349 344.657 -70.7561 339.969 -78.5625 334.319C-100.978 318.09 -115.364 277.577 -109.454 247.643C-106.443 232.736 -97.1864 213.862 -69.7524 208.813C-49.2326 204.966 -27.2631 199.557 -4.51295 178.879C21.3598 155.317 43.4408 116.006 63.0684 58.5431C72.8822 29.8114 88.8296 6.85013 110.353 -9.73969C127.639 -23.0837 148.716 -32.3403 172.804 -37.3894C188.417 -40.6352 203.361 -41.7172 215.963 -41.7172C236.483 -41.7172 250.534 -38.9522 250.757 -38.9522C251.315 -38.832 312.205 -27.171 377.89 -23.2039C466.438 -17.7942 521.194 -28.1328 540.487 -54.0994C559.557 -79.7055 564.018 -114.087 553.312 -153.879C549.632 -167.463 544.836 -179.485 540.599 -188.741H536.807C541.156 -179.605 546.286 -167.103 550.078 -152.917C557.327 -125.868 561.118 -87.3993 537.922 -56.2633Z" fill="white"/>
<path fill-rule="evenodd" clip-rule="evenodd" d="M181.057 -8.65726C192.989 -14.9085 206.26 -16.2309 218.528 -12.2637C230.46 -8.41683 239.493 -0.362343 245.293 11.6593C262.69 47.8443 247.3 111.439 236.594 146.061C233.806 155.197 230.349 160.006 225.776 161.088C225.107 161.208 224.438 161.328 223.769 161.328C216.34 161.328 207.809 151.94 197.188 140.252L197.004 140.05C186.856 128.87 175.369 116.247 161.541 107.351C138.456 92.4445 127.081 75.7345 127.75 57.4616C128.977 25.6043 167.674 -1.5645 181.057 -8.65726ZM225.107 157.603C228.341 156.761 231.129 152.674 233.471 144.98C258.006 65.3973 249.53 28.3707 242.281 13.4639C236.928 2.40403 228.564 -5.04937 217.524 -8.65585C213.174 -10.0984 208.714 -10.8197 204.141 -10.8197C196.781 -10.8197 189.421 -9.0165 182.506 -5.41002C169.57 1.4423 132.211 27.5292 131.095 57.5832C130.426 74.4135 141.355 90.1618 163.325 104.227C177.356 113.159 189.417 126.457 199.182 137.224L199.457 137.527L199.584 137.666C210.013 149.148 218.998 159.04 225.107 157.603Z" fill="white"/>
<path fill-rule="evenodd" clip-rule="evenodd" d="M187.079 47.1234C190.982 45.0797 195.332 44.5989 199.346 45.9213C203.361 47.2436 206.372 49.8884 208.268 53.9757C213.844 65.5165 209.049 85.3521 205.703 96.1716C205.145 98.2153 204.03 100.98 201.577 101.581C201.242 101.702 201.019 101.702 200.685 101.702C197.923 101.702 195.271 98.7532 191.753 94.8422L191.651 94.729C188.64 91.363 185.183 87.516 181.057 84.8713C173.585 80.0626 169.905 74.5327 170.128 68.4017C170.546 56.912 184.966 48.3776 186.872 47.2492C187 47.1734 187.072 47.131 187.079 47.1234ZM200.908 97.9763C201.242 97.9763 201.911 97.0146 202.58 94.9709C205.034 86.676 210.498 66.2392 205.48 55.54C203.919 52.4144 201.688 50.3707 198.566 49.409C197.339 49.0483 196.001 48.8079 194.774 48.8079C192.655 48.8079 190.648 49.2888 188.64 50.3707C185.629 52.0537 173.92 59.8678 173.585 68.6436C173.362 73.2118 176.485 77.6598 182.841 81.7471C187.302 84.6323 191.094 88.8399 194.105 92.2059C194.256 92.3691 194.41 92.5356 194.566 92.7041C196.937 95.2663 199.757 98.3147 200.908 97.9763Z" fill="white"/>
<path d="M1267.49 90.1599C1205.82 42.7948 1131.54 3.36391 1072.66 25.4837C1030.06 41.4724 1000.51 88.1162 985.007 164.093C977.87 199.196 960.027 221.316 932.035 229.851C879.62 245.96 795.757 208.933 737.209 143.656C690.259 91.4823 671.412 34.1392 685.464 -13.5866C698.511 -57.8261 702.192 -105.913 696.504 -156.283C695.277 -166.982 693.604 -177.682 691.597 -188.501H688.14C690.259 -177.441 691.932 -166.622 693.158 -155.802C698.846 -105.913 695.166 -58.307 682.341 -14.5483C667.843 34.4999 687.025 93.0451 734.867 146.301C762.747 177.317 797.765 203.403 833.563 219.753C858.989 231.414 883.524 237.304 905.159 237.304C915.195 237.304 924.563 235.982 933.039 233.457C961.811 224.682 980.992 200.999 988.353 164.934C1003.63 90.2801 1032.29 44.598 1073.78 28.9699C1131.99 7.09059 1206.15 47.2428 1267.49 94.7281V90.1599Z" fill="white"/>
<path d="M1267.49 -3.48709C1221.99 -45.4425 1150.61 -82.5893 1092.62 -69.9666C1056.6 -62.1525 1029.17 -36.3061 1011.21 6.61107C986.345 65.9978 954.785 107.593 917.314 130.434C877.167 154.837 841.48 150.75 818.619 143.056C790.962 133.679 767.096 113.964 751.372 87.5165C735.09 60.2274 729.068 28.0095 734.532 -3.12643C745.796 -67.8027 750.145 -130.075 747.357 -188.62H744.012C746.688 -130.435 742.45 -68.2836 731.298 -3.84773C725.722 28.25 731.856 61.3094 748.584 89.3197C764.754 116.489 789.289 136.685 817.727 146.302C829.659 150.389 841.926 152.313 854.194 152.313C876.163 152.313 898.356 145.942 918.987 133.439C957.127 110.237 989.133 68.0415 1014.34 7.93346C1031.85 -33.9017 1058.39 -58.9067 1093.29 -66.6005C1121.62 -72.7316 1155.63 -67.2016 1191.65 -50.3714C1218.64 -37.7487 1245.85 -19.2354 1267.49 1.20134V-3.48709Z" fill="white"/>
<path d="M1267.49 -74.4157C1258.34 -73.5742 1248.2 -73.5742 1237.38 -74.6561C1199.35 -78.503 1153.4 -94.3715 1111.25 -118.415C1062.4 -146.305 1021.59 -104.71 974.413 -56.6237C938.503 -19.9578 897.798 21.5167 847.391 36.5437C829.659 41.8332 815.942 39.0683 806.463 28.6095C774.234 -7.33513 795.757 -125.027 810.478 -188.38H807.021C802.56 -169.026 797.43 -144.862 793.415 -119.617C781.036 -41.1158 784.605 9.61533 804.01 31.2542C811.035 39.0683 820.069 42.9152 830.998 42.9152C836.351 42.9152 842.038 41.9534 848.283 40.1502C899.36 25.003 940.511 -16.8322 976.643 -53.8587C1022.92 -100.983 1062.85 -141.737 1109.58 -115.049C1152.62 -90.4044 1197.9 -74.7763 1236.93 -70.9294C1247.86 -69.8475 1258.12 -69.7272 1267.38 -70.5688V-74.4157H1267.49Z" fill="white"/>
<path fill-rule="evenodd" clip-rule="evenodd" d="M553.312 889.717C574.612 876.253 611.525 875.892 663.048 888.756C698.644 897.709 729.232 910.149 733.62 911.933C733.769 911.994 733.887 912.042 733.975 912.077C767.096 918.689 771.223 924.58 771 928.908C770.777 934.798 761.855 942.853 694.497 953.672C652.676 960.404 602.827 965.934 566.471 969.901L557.438 970.863C550.858 971.584 544.948 971.945 539.595 971.945C519.187 971.945 507.254 966.656 504.131 956.317C498.444 937.683 524.651 907.87 553.312 889.717ZM693.828 950.185C759.959 939.486 767.319 931.672 767.431 928.786C767.543 927.344 765.201 922.054 732.971 915.563L732.637 915.442C732.62 915.436 732.521 915.396 732.343 915.323C729.018 913.955 698.15 901.256 662.156 892.241C642.64 887.312 619.332 882.984 598.143 882.984C581.527 882.984 566.137 885.749 554.873 892.842C540.71 901.858 527.439 913.519 518.406 924.939C508.927 937.081 504.912 947.781 507.142 955.234C510.6 966.294 527.774 970.501 556.881 967.256L566.025 966.414C568.712 966.112 571.472 965.803 574.297 965.486C609.689 961.52 655.202 956.419 693.828 950.185Z" fill="white"/>
<path fill-rule="evenodd" clip-rule="evenodd" d="M577.847 126.585C576.954 116.968 589.11 105.668 613.868 92.8046C630.15 84.3894 649.443 87.0342 663.048 99.6569C673.754 109.635 685.352 123.82 679.553 135.602C675.092 144.738 660.929 149.547 642.082 149.547C629.48 149.547 614.76 147.383 599.37 142.935C585.43 138.968 578.404 133.558 577.847 126.585ZM600.151 139.449C635.726 149.788 669.962 147.263 676.542 133.919C680.334 126.346 674.869 115.406 660.818 102.423C653.011 95.3299 643.309 91.6032 633.495 91.6032C627.25 91.6032 621.005 93.0458 615.206 96.0512C592.567 107.832 580.412 118.532 581.081 126.225C581.527 131.395 588.106 135.963 600.151 139.449Z" fill="white"/>
<path fill-rule="evenodd" clip-rule="evenodd" d="M461.419 690.398C445.026 690.398 427.517 688.595 415.027 683.426C397.183 676.093 396.291 665.153 398.745 657.219C401.31 648.683 406.551 642.432 414.469 638.705C428.632 632.094 450.936 633.656 480.712 643.514C502.682 650.847 520.859 660.104 521.082 660.224C530.45 665.273 530.785 670.082 529.558 673.208C525.878 682.224 502.682 687.513 482.273 689.437C475.917 690.038 468.779 690.398 461.419 690.398ZM415.807 641.953C408.781 645.198 404.098 650.728 401.867 658.302C399.079 667.679 403.875 675.012 416.365 680.061C431.086 686.072 456.289 688.236 482.05 685.831C505.804 683.547 524.093 677.777 526.547 671.766C527.774 668.64 523.424 665.515 519.633 663.471C518.517 662.87 470.118 638.346 435.323 638.346C428.074 638.346 421.383 639.308 415.807 641.953Z" fill="white"/>
</g>
<g opacity="0.21">
<path d="M-155.013 768.09C-104.627 804.609 -71.7428 856.986 -42.8714 903.236C-10.0984 955.613 18.3271 1000.9 62.6932 1008.23C66.8177 1008.95 71.0536 1009.19 75.2896 1009.19C109.512 1009.19 150.199 987.928 201.811 943.119C240.492 909.483 272.708 878.97 301.133 851.941C361.105 794.879 404.468 753.674 452.401 740.34C501.338 726.645 555.068 741.06 637.78 789.953C705.333 829.957 785.928 857.466 858.719 865.395C892.607 869.119 923.373 868.398 947.786 863.113C973.536 857.587 991.595 847.616 1001.29 833.32C1014.56 813.739 1017.79 777.34 957.484 714.992C885.361 640.392 803.317 631.382 716.48 621.891C658.96 615.645 599.434 609.038 539.35 582.969C471.352 553.537 412.383 502.362 358.987 426.8C319.526 370.94 273.488 344.511 225.666 350.398C193.116 354.362 161.124 372.862 130.58 405.177C99.925 437.852 72.2798 482.901 48.6476 539.122C31.035 580.807 11.6387 602.19 -10.9902 604.352C-59.9267 609.038 -116.555 520.382 -171.176 434.609C-198.487 391.722 -226.69 347.514 -253.555 315.8C-267.489 299.102 -280.197 286.969 -292.013 278.92V283.365C-254.446 310.034 -213.647 373.943 -173.852 436.411C-146.429 479.417 -118.004 523.985 -90.6931 556.421C-61.4873 591.018 -36.5175 607.956 -14.5573 607.956C-13.2197 607.956 -11.882 607.836 -10.5443 607.716C13.3108 605.434 33.7103 583.45 51.7689 540.443C75.2896 484.583 102.6 439.894 133.032 407.579C163.019 375.745 194.342 357.605 226.112 353.761C272.596 348.115 317.743 374.063 356.424 428.842C410.153 505.005 469.68 556.421 538.124 586.093C598.654 612.401 658.403 618.888 716.146 625.255C802.426 634.745 883.912 643.635 955.255 717.395C1013.89 778.061 1011.21 812.658 998.729 831.038C980.447 857.827 928.278 869.239 859.165 861.671C786.819 853.742 706.671 826.353 639.453 786.59C555.96 737.216 501.561 722.801 451.621 736.736C402.908 750.31 359.322 791.755 299.015 849.178C270.59 876.207 238.486 906.72 199.805 940.236C142.508 989.97 99.1447 1010.39 63.2505 1004.51C20.3336 997.538 -7.64603 952.85 -40.0846 901.074C-69.1789 854.583 -102.175 801.966 -153.118 764.966C-195.366 734.333 -235.608 718.957 -273.174 718.957C-279.528 718.957 -285.77 719.437 -292.013 720.278V723.882C-249.765 717.995 -203.838 732.651 -155.013 768.09Z" fill="white"/>
<path d="M-229.477 1121.75C-177.865 1122.6 -120.122 1133.77 -69.179 1143.5C3.8356 1157.55 61.3554 1168.61 68.4897 1143.14C79.191 1104.94 44.4116 1073.34 -13.3312 1021.09C-54.6875 983.605 -106.299 936.994 -161.478 869.962C-202.946 819.748 -244.302 796.923 -284.21 802.449C-286.662 802.809 -289.226 803.29 -292.013 803.89V807.614C-289.337 807.014 -286.551 806.413 -283.764 806.053C-244.971 800.767 -204.73 823.111 -163.931 872.485C-108.529 939.757 -56.917 986.488 -15.4492 1024.09C41.1789 1075.38 75.401 1106.38 65.3685 1142.3C59.126 1164.64 -0.0659485 1153.23 -68.5101 1140.13C-142.416 1125.84 -229.254 1109.14 -292.013 1123.68V1127.4C-274.177 1123.2 -253.443 1121.39 -229.477 1121.75Z" fill="white"/>
<path fill-rule="evenodd" clip-rule="evenodd" d="M87.6631 942.76C84.4304 942.76 81.3092 942.4 78.2994 941.559C50.9886 934.351 29.2515 913.449 15.4289 881.374C1.4948 848.699 -3.18705 806.533 2.05216 759.322C6.84548 716.796 20.7796 674.63 42.6282 637.39C120.325 504.646 184.867 431.847 234.473 421.036C250.413 417.552 265.016 420.555 277.612 430.046C324.853 465.409 355.668 499.835 382.845 530.197L383.846 531.315L384.089 531.587C426.11 578.549 459.342 615.688 532.104 637.15C578.143 650.724 599.88 663.218 598.431 675.471C597.316 684.961 581.71 692.53 551.947 698.056C523.075 703.341 481.384 706.585 431.445 707.306C393.767 707.906 354.64 723.643 311.723 755.718C274.268 783.828 238.82 820.468 207.496 852.903C161.235 900.835 120.77 942.76 87.6631 942.76ZM45.5264 639.312C24.0122 676.072 10.1896 717.757 5.50776 759.803C0.380019 806.293 4.9504 847.858 18.6615 879.933C31.9268 911.046 52.8836 931.228 79.1912 938.196C81.978 938.916 84.8763 939.277 87.7746 939.277C119.432 939.277 159.449 897.835 205.15 850.506L205.155 850.501C236.479 817.946 272.039 781.186 309.828 752.955C353.302 720.52 393.098 704.423 431.445 703.822C481.273 703.101 522.741 699.858 551.389 694.572C588.287 687.725 594.641 679.436 595.198 675.111C596.759 661.416 551.055 646.4 531.324 640.634C457.529 618.77 423.976 581.29 381.616 533.838L381.158 533.326C353.96 502.938 323.162 468.528 275.829 433.049C267.134 426.562 257.547 423.319 247.069 423.319C243.279 423.319 239.266 423.799 235.253 424.64C186.651 435.212 122.777 507.41 45.5264 639.312Z" fill="white"/>
<path fill-rule="evenodd" clip-rule="evenodd" d="M873.545 810.137C821.264 801.968 761.626 788.393 726.401 779.143C667.543 763.767 642.351 750.192 639.564 732.172C637 715.955 653.275 696.374 690.618 670.546C711.018 656.49 737.548 653.487 769.764 661.896C795.291 668.503 824.385 682.198 856.266 702.62C909.327 736.617 952.69 778.182 954.808 780.224C970.414 792.117 976.657 801.007 973.87 807.614C971.195 813.741 960.493 816.864 941.32 816.864C924.934 816.864 902.416 814.582 873.545 810.137ZM736.21 660.815C719.267 660.815 704.664 665.14 692.402 673.549C656.842 698.176 640.678 717.156 642.796 731.332C645.918 751.634 687.162 765.088 727.07 775.539C823.828 800.887 962.388 825.634 970.637 806.052C971.752 803.41 970.972 796.923 952.69 782.988L952.579 782.867C952.553 782.847 952.384 782.687 952.079 782.398C947.064 777.659 905.23 738.12 854.483 705.624C822.936 685.442 794.176 671.867 768.983 665.38C757.279 662.377 746.354 660.815 736.21 660.815Z" fill="white"/>
<path fill-rule="evenodd" clip-rule="evenodd" d="M831.966 765.929C812.124 762.805 789.383 757.64 776.006 754.156C756.722 749.111 743.679 743.945 742.23 735.296C741.116 728.568 747.247 721 762.072 710.789C776.341 700.818 797.967 704.903 826.058 722.922C846.011 735.656 862.398 751.273 863.624 752.474C868.083 755.838 872.876 760.283 871.204 764.247C870.312 766.409 867.748 768.451 857.939 768.451C852.142 768.451 843.893 767.731 831.966 765.929ZM780.019 709.227C774.111 709.227 768.649 710.668 763.967 713.912C751.037 722.802 744.794 729.889 745.463 734.694C746.578 741.782 761.849 746.707 776.675 750.552C826.503 763.646 865.965 767.73 868.083 762.805C868.083 762.805 868.752 761.003 861.617 755.477L861.506 755.357C861.486 755.339 861.406 755.264 861.268 755.135C857.574 751.658 812.476 709.227 780.019 709.227Z" fill="white"/>
<path d="M1092.92 105.694C1065.84 116.385 1049.78 144.255 1027.38 182.937C1016.56 201.677 1004.19 222.94 988.696 245.525C938.311 318.444 887.591 291.655 803.54 247.327C760.177 224.382 706.113 195.911 639.341 175.249C542.248 145.216 477.483 146.778 441.366 180.054C408.258 210.567 397.78 266.908 408.258 357.366C417.399 435.811 472.021 496.236 570.563 537.08C663.419 575.522 773.331 586.454 830.517 589.697C929.95 595.103 1017.23 611.681 1090.14 638.71C1148.33 660.334 1197.48 688.684 1236.17 723.042C1248.87 734.334 1259.69 745.506 1268.72 756.318V751.032C1260.13 741.181 1250.21 730.85 1238.62 720.519C1199.6 685.801 1150.11 657.21 1091.47 635.467C1018.24 608.317 930.508 591.74 830.74 586.214C773.666 583.09 664.2 572.158 571.789 533.837C474.473 493.593 420.52 434.129 411.603 357.126C401.236 267.989 411.38 212.729 443.595 183.057C478.821 150.622 542.583 149.181 638.449 178.973C704.999 199.635 758.84 227.986 802.091 250.811C844.785 273.395 878.561 291.174 908.659 294.298C941.32 297.661 966.848 283.366 991.372 247.928C1006.98 225.343 1019.35 203.96 1030.28 185.1C1052.24 147.018 1068.18 119.509 1094.15 109.297C1121.57 98.4858 1158.69 107.616 1218.44 139.811C1236.61 149.661 1253.33 160.473 1268.72 171.885V167.32C1253.78 156.268 1237.5 145.937 1219.89 136.447C1159.14 103.772 1121.24 94.5215 1092.92 105.694Z" fill="white"/>
<path d="M1158.58 218.136C1131.16 218.977 1107.97 233.032 1089.69 259.941C1073.08 284.328 1061.38 306.552 1050.9 326.013C1017.23 389.081 1001.85 417.912 898.738 374.305C868.64 361.571 833.192 343.071 795.626 323.49C692.179 269.432 574.91 208.165 512.819 237.958C494.092 246.847 481.273 263.906 474.696 288.412C465.778 321.568 469.234 351.601 485.174 377.669C508.361 415.51 557.186 445.542 634.325 469.568C694.297 488.309 771.547 503.325 877.224 517.02C981.005 530.474 1088.46 566.273 1179.65 617.689C1213.65 636.909 1243.86 657.572 1268.38 678.114V673.309C1244.19 653.367 1214.76 633.426 1181.1 614.445C1089.58 562.789 981.673 526.87 877.446 513.416C771.882 499.721 694.854 484.705 635.105 465.964C558.746 442.179 510.59 412.507 487.85 375.506C472.466 350.399 469.122 321.448 477.706 289.253C484.171 265.467 495.987 249.73 513.934 241.201C574.687 212.13 691.176 273.036 793.953 326.734C831.52 346.435 867.079 364.935 897.289 377.669C948.232 399.172 979.555 403.977 1002.07 393.526C1023.81 383.435 1036.29 360.13 1053.46 327.815C1063.83 308.354 1075.53 286.37 1092.03 262.104C1109.64 236.156 1131.94 222.581 1158.36 221.74C1195.59 220.659 1236.05 245.165 1268.27 271.234V266.669C1217.66 225.824 1181.1 217.415 1158.58 218.136Z" fill="white"/>
<path fill-rule="evenodd" clip-rule="evenodd" d="M883.834 440.492C884.219 440.787 884.433 440.951 884.469 440.977C897.735 451.669 902.416 460.438 898.403 467.045C893.945 474.133 879.565 476.896 860.614 476.896C834.641 476.896 799.862 471.73 769.318 465.123C694.966 449.146 624.069 421.997 579.703 392.565C529.764 359.409 512.82 323.49 530.767 288.652C535.56 279.282 543.586 273.276 554.51 270.633C589.736 262.224 656.062 288.292 751.483 348.357C818.539 390.398 877.12 435.34 883.834 440.492ZM854.26 473.053C885.138 473.894 893.387 468.248 895.505 464.884C899.184 459.118 890.489 450.228 882.463 443.861C879.565 441.579 661.078 272.676 568.667 272.676C563.763 272.676 559.304 273.156 555.179 274.118C545.258 276.52 538.012 281.926 533.665 290.335C524.747 307.634 524.859 325.173 534.111 342.592C542.471 358.449 558.412 374.186 581.375 389.442C625.407 418.634 695.858 445.663 769.875 461.52C801.645 468.368 831.631 472.452 854.26 473.053Z" fill="white"/>
<path fill-rule="evenodd" clip-rule="evenodd" d="M767.791 410.081C768.598 410.619 769.045 410.918 769.095 410.945C770.767 412.266 776.006 416.471 773.443 420.435C771.993 422.838 767.535 423.679 761.515 423.679C745.017 423.679 717.037 416.711 709.903 414.909C672.783 405.299 638.338 391.484 617.827 377.909C597.204 364.214 590.07 350.88 596.536 338.266C598.096 335.263 600.772 333.221 604.339 332.26C618.83 328.295 651.046 340.308 699.982 368.058C732.169 386.309 761.365 405.793 767.791 410.081ZM710.684 411.306C748.584 421.036 768.872 421.276 770.767 418.273C770.99 418.153 770.656 416.711 767.089 413.828C763.967 411.666 650.042 335.023 610.693 335.023C608.575 335.023 606.791 335.263 605.119 335.744C602.332 336.465 600.549 337.906 599.434 339.948C593.972 350.52 600.66 362.172 619.499 374.666C639.675 388.12 673.786 401.815 710.684 411.306Z" fill="white"/>
<path fill-rule="evenodd" clip-rule="evenodd" d="M111.184 852.783C100.036 857.828 90.8957 859.87 83.4271 859.87C68.2668 859.87 60.0178 851.461 55.336 842.571C25.5728 785.75 92.7908 602.792 184.198 531.435C211.509 510.172 236.033 501.523 256.99 505.847C274.268 509.451 289.094 521.584 301.133 542.006C312.949 561.948 318.634 585.013 317.854 608.799C317.074 632.464 309.828 655.169 297.009 674.39L293.553 679.555L293.351 679.857C250.832 743.552 206.899 809.364 111.184 852.783ZM186.205 534.558C144.848 566.873 104.161 626.578 77.4074 694.211C52.3261 757.519 44.8574 815.182 58.2341 840.889C67.2634 858.068 84.5417 860.951 109.846 849.419C204.821 806.292 248.518 740.821 290.766 677.393L294.222 672.227C306.707 653.607 313.729 631.623 314.51 608.678C315.29 585.613 309.716 563.269 298.346 544.048C286.864 524.587 272.707 512.935 256.432 509.571C253.088 508.85 249.633 508.49 246.177 508.49C228.453 508.49 208.388 517.259 186.205 534.558Z" fill="white"/>
<path fill-rule="evenodd" clip-rule="evenodd" d="M142.975 769.957C136.064 773.08 130.379 774.401 125.809 774.401C117.002 774.401 112.209 769.716 109.645 764.791C101.953 750.135 106.635 719.142 121.795 683.944C137.625 647.424 161.368 614.268 185.446 595.528C201.387 583.155 215.655 578.109 228.029 580.632C238.173 582.674 246.979 589.762 254.002 601.775C267.936 625.56 267.044 655.833 251.55 679.018C226.914 715.898 200.049 744.009 142.975 769.957ZM187.453 598.529C163.932 616.909 140.523 649.464 124.917 685.503C110.314 719.019 105.52 749.532 112.655 763.107C117.336 772.117 127.146 773.318 141.749 766.711C198.154 741.123 224.573 713.373 248.874 676.974C263.589 654.99 264.48 626.279 251.215 603.815C244.638 592.763 236.724 586.156 227.471 584.234C225.576 583.873 223.681 583.633 221.675 583.633C211.531 583.633 200.161 588.678 187.453 598.529Z" fill="white"/>
<path d="M1219.67 779.022C1191.24 760.882 1162.93 757.038 1140.08 768.21C1106.08 784.668 1090.47 830.798 1103.85 875.486C1107.3 887.019 1105.18 896.269 1097.6 903.477C1073.64 926.061 996.165 927.983 884.915 908.642C788.826 891.944 685.268 861.791 632.987 835.123C589.624 813.019 554.622 809.415 528.871 824.191C506.02 837.285 490.971 865.395 485.286 905.278C476.814 964.983 360.325 1021.92 266.688 1067.57C200.25 1100.01 147.747 1125.6 140.724 1146.62C139.498 1150.22 139.609 1153.59 141.058 1156.71C147.301 1170.65 162.573 1173.05 190.775 1164.52C216.748 1156.59 253.534 1139.65 300.018 1118.15C372.141 1084.75 471.017 1038.98 597.873 995.376C701.877 959.697 792.281 963.782 866.522 1007.51C906.764 1031.29 941.543 1066.37 969.857 1111.78C994.047 1150.7 1013.33 1197.19 1025.48 1246.33C1034.4 1282.37 1053.91 1312.4 1083.56 1335.58C1107.53 1354.32 1138.29 1368.74 1174.86 1378.47C1203.39 1386.04 1235.83 1390.6 1268.94 1391.92V1388.32C1236.05 1387 1203.95 1382.43 1175.64 1374.87C1139.52 1365.38 1109.2 1351.08 1085.57 1332.58C1056.58 1309.88 1037.52 1280.56 1028.71 1245.25C1016.45 1195.63 997.056 1148.78 972.644 1109.62C943.996 1063.61 908.882 1028.17 868.083 1004.15C793.062 959.817 701.766 955.733 596.87 991.652C469.791 1035.26 370.915 1081.03 298.681 1114.54C206.493 1157.19 155.661 1180.74 144.068 1154.91C143.065 1152.63 142.953 1150.22 143.845 1147.58C150.422 1128 204.932 1101.33 268.137 1070.58C315.179 1047.63 368.574 1021.56 410.599 993.934C459.201 961.98 484.728 933.028 488.63 905.519C494.092 866.837 508.583 839.687 530.432 827.074C555.291 812.778 589.29 816.502 631.649 838.126C709.457 877.769 899.406 925.1 1014.78 925.1C1054.58 925.1 1085.57 919.454 1099.95 905.879C1108.64 897.71 1111.09 887.019 1107.19 874.045C1094.37 831.158 1109.2 786.83 1141.64 771.093C1183.33 750.911 1229.48 781.424 1268.83 829.236V823.11C1252.55 804.489 1236.17 789.593 1219.67 779.022Z" fill="white"/>
<path fill-rule="evenodd" clip-rule="evenodd" d="M293.218 929.305C299.238 918.373 305.592 908.522 312.28 899.873C333.46 872.243 365.564 857.827 397.78 861.191C416.73 863.233 426.317 870.441 426.428 882.814C426.651 923.779 311.054 1009.31 258.996 1015.32C251.416 1016.28 245.62 1016.64 241.272 1016.64C231.909 1016.64 228.787 1014.84 227.673 1012.19C225.443 1006.67 233.469 998.74 246.846 985.526C261.114 971.47 280.622 952.25 293.218 929.305ZM360.213 959.457C399.117 929.665 423.307 900.233 423.195 882.934C423.195 872.723 414.501 866.596 397.668 864.914C394.658 864.554 391.649 864.434 388.639 864.434C360.548 864.434 333.571 878.129 314.956 902.155C308.379 910.564 302.136 920.415 296.228 931.106C283.524 954.322 263.921 973.644 249.574 987.786L249.187 988.168L248.681 988.668C239.251 998.002 229.591 1007.56 230.905 1010.63C231.686 1012.55 237.148 1014.24 258.773 1011.71C282.629 1008.95 322.424 988.408 360.213 959.457Z" fill="white"/>
<path d="M-183.104 285.89C-158.023 335.624 -131.158 386.799 -104.962 424.16C-76.0904 465.124 -51.009 485.065 -28.1571 485.065C-27.9342 485.065 -27.7113 485.065 -27.4883 485.065C-4.74789 484.705 15.3172 465.004 33.8216 425.121C72.7256 341.39 118.764 290.215 167.031 277.361C200.027 268.591 233.915 277.241 267.691 303.309C293.664 323.37 312.169 329.978 323.985 323.611C341.486 314.241 342.489 279.283 343.604 238.919C344.83 194.591 346.168 144.257 370.803 121.192C382.285 110.5 397.668 106.536 417.845 108.938C470.683 115.425 520.957 106.776 563.205 84.1917C603.335 62.6884 634.436 29.8929 653.052 -10.711C670.776 -49.2728 675.904 -92.7598 668.101 -136.247C664.868 -154.387 659.406 -172.166 651.937 -189.585H648.147C674.232 -130.24 675.681 -67.7728 650.154 -12.2727C631.872 27.6104 601.329 59.8053 561.867 80.9482C520.177 103.292 470.46 111.701 418.291 105.335C397.445 102.812 380.724 107.136 368.685 118.429C342.935 142.455 341.597 193.63 340.26 238.679C339.257 276.28 338.253 311.838 322.536 320.247C311.834 326.013 294.556 319.406 269.586 300.185C234.918 273.517 200.139 264.627 166.14 273.637C116.869 286.851 70.0502 338.627 30.8119 423.319C12.8648 461.88 -6.19705 480.861 -27.4883 481.221C-27.7113 481.221 -27.9342 481.221 -28.1571 481.221C-76.6477 481.221 -129.82 383.796 -180.206 283.848C-211.084 222.942 -248.539 180.896 -292.013 158.552V162.516C-249.876 184.74 -213.313 226.065 -183.104 285.89Z" fill="white"/>
<path d="M-141.19 131.642C-121.906 131.642 -104.962 128.639 -91.0277 122.512C-59.258 108.577 -43.4289 80.1065 -43.9863 37.5805C-44.5436 -4.1046 -34.1767 -35.0981 -12.328 -57.0819C41.5132 -111.621 157.445 -102.251 280.288 -92.1598C298.346 -90.7183 317.074 -89.1566 335.467 -87.8352C353.414 -86.5137 369.912 -85.9131 385.072 -85.9131C454.296 -85.9131 493.535 -99.2475 502.118 -125.796C508.138 -144.537 498.105 -167.241 482.053 -189.345H477.706C494.204 -167.361 504.682 -144.897 498.997 -126.877C489.187 -96.3644 434.343 -84.3514 335.801 -91.3189C317.408 -92.6404 298.681 -94.2021 280.622 -95.6436C157.11 -105.735 40.3985 -115.225 -14.5575 -59.6046C-37.075 -36.7799 -47.7763 -4.94551 -47.2189 37.8207C-46.6616 78.6649 -61.8219 106.175 -92.1424 119.389C-131.158 136.447 -194.586 128.639 -266.374 98.0059C-274.958 94.4019 -283.429 90.4377 -291.901 86.3532V90.3175C-283.875 94.2818 -275.738 98.0059 -267.6 101.37C-220.559 121.311 -176.862 131.642 -141.19 131.642Z" fill="white"/>
<path d="M-205.064 17.2787C-164.934 14.6358 -130.935 -8.06873 -103.847 -50.2344L-99.3881 -57.2019C-66.5037 -108.377 -50.0058 -134.085 -25.5933 -144.777C-1.18076 -155.468 31.9266 -151.624 97.9184 -143.816C105.944 -142.855 114.528 -141.894 123.557 -140.812C201.811 -131.803 258.439 -128.679 296.674 -131.562C333.571 -134.325 354.528 -142.374 362.554 -156.91C367.459 -165.799 367.236 -176.611 363.223 -189.345H359.768C363.781 -177.092 364.227 -166.881 359.656 -158.712C352.299 -145.618 331.676 -137.809 296.451 -135.166C258.327 -132.283 201.922 -135.286 123.892 -144.416C114.862 -145.498 106.279 -146.459 98.2528 -147.42C31.7036 -155.348 -1.62665 -159.312 -26.9309 -148.14C-52.2352 -136.968 -68.9561 -111.02 -102.175 -59.2441L-106.634 -52.2766C-133.164 -11.072 -166.272 11.1521 -205.287 13.6748C-225.352 14.9962 -254.447 11.2722 -292.124 -7.70833V-3.74403C-259.017 12.7138 -232.486 17.519 -212.756 17.519C-209.969 17.519 -207.405 17.3988 -205.064 17.2787Z" fill="white"/>
<path d="M527.868 -100.809C505.797 -53.8387 408.035 -60.2056 406.92 -60.3257C352.187 -60.3257 301.356 -64.5302 256.544 -68.3744C189.883 -74.0205 132.252 -78.8257 89.6694 -66.9328C67.1519 -60.6861 49.6507 -49.9945 36.274 -34.3776C21.7826 -17.5594 11.973 5.1452 6.17642 34.8173C-13.1083 134.045 -63.6054 145.938 -104.293 155.428C-128.817 161.194 -149.997 166.119 -157.019 189.665C-163.373 211.168 -156.016 253.934 -138.069 298.623C-118.896 346.555 -92.8113 383.675 -68.2873 397.85C-60.3727 402.415 -52.4582 404.698 -44.9895 404.698C-30.721 404.698 -17.2328 396.529 -5.41672 380.552C12.5304 356.285 27.1333 329.857 41.2903 304.269C67.7093 256.457 90.4497 215.253 125.787 206.003C147.524 200.357 172.828 207.324 202.926 227.626C242.833 254.415 270.478 262.824 287.533 253.334C308.713 241.561 310.831 205.162 313.061 166.48C316.07 114.584 319.191 60.8855 368.685 63.2881C380.056 63.7686 390.98 64.129 401.57 64.129C508.583 64.129 578.031 36.8595 608.017 -17.199C631.649 -59.6049 625.63 -110.78 616.489 -146.099C612.142 -163.037 606.679 -177.933 601.886 -189.465H598.207C603.112 -177.933 608.797 -162.436 613.256 -145.017C629.42 -82.1893 617.715 -41.8256 605.119 -19.0009C572.792 39.142 493.2 65.6907 368.797 59.8044C345.053 58.7232 329.224 69.5349 320.418 92.9602C312.726 113.262 311.165 140.291 309.716 166.48C307.598 204.081 305.48 239.519 285.973 250.331C270.032 259.22 243.502 250.811 204.598 224.743C173.608 203.96 147.524 196.753 124.895 202.759C88.2203 212.37 65.034 254.175 38.2805 302.707C24.235 328.175 9.63208 354.483 -8.20354 378.509C-25.5933 401.935 -45.3239 407.341 -66.9496 394.847C-90.8047 381.032 -116.443 344.633 -135.282 297.422C-152.561 254.175 -160.141 211.408 -154.121 190.986C-147.656 169.363 -128.371 164.798 -103.847 159.152C-83.3361 154.347 -60.1498 148.941 -39.4159 131.882C-15.4493 112.181 0.491318 80.707 9.18619 35.6582C19.999 -20.2022 44.9689 -50.7153 90.2268 -63.3289C109.177 -68.6146 131.36 -70.5367 155.996 -70.5367C185.87 -70.5367 219.646 -67.6536 255.987 -64.6504C300.91 -60.9263 351.742 -56.6016 406.475 -56.6016C406.475 -56.6016 406.475 -56.6016 406.586 -56.6016C406.809 -56.6016 432.002 -54.7997 459.536 -59.1244C496.99 -64.8906 520.845 -78.3452 530.655 -99.0075C541.245 -121.472 534.445 -151.745 510.367 -189.345H506.354C530.878 -152.225 538.012 -122.433 527.868 -100.809Z" fill="white"/>
<path d="M536.452 -57.2014C518.17 -32.5748 462.88 -22.3637 376.711 -27.6494C311.277 -31.6137 250.636 -43.2663 250.079 -43.3864C249.744 -43.5066 212.735 -50.5942 171.045 -41.8248C146.409 -36.7793 125.006 -27.289 107.282 -13.5942C85.0991 3.46423 68.7127 27.0097 58.6801 56.3214C39.2839 113.143 17.5467 151.945 -7.86903 175.01C-29.9406 195.072 -51.4548 200.357 -71.5199 204.081C-100.837 209.487 -110.758 229.669 -113.879 245.646C-120.122 276.88 -105.073 319.046 -81.6639 335.984C-75.31 340.549 -68.8445 342.831 -62.6021 342.831C-56.8055 342.831 -51.1204 340.909 -45.7697 336.945C-23.8096 320.848 -1.29214 289.854 22.563 257.179C67.9324 194.831 114.862 130.442 162.015 162.757C168.927 167.442 175.615 172.127 181.969 176.692C216.525 201.078 243.948 220.419 261.226 211.289C271.481 205.883 277.278 191.588 279.396 166.12C283.743 113.503 291.769 73.8604 316.851 51.5162C334.686 35.5389 360.102 29.6526 394.659 33.2565C491.417 43.4675 555.179 24.9675 584.274 -21.5228C607.571 -58.7631 603.558 -107.175 596.09 -141.292C591.854 -160.633 586.057 -177.692 581.487 -189.585H577.92C582.49 -177.812 588.509 -160.393 592.857 -140.451C600.103 -107.055 604.004 -59.7241 581.487 -23.565C553.173 21.724 490.414 39.6234 394.993 29.6526C359.545 25.9285 333.349 32.1753 314.733 48.7532C288.871 71.9383 280.511 112.302 276.052 165.88C274.045 189.666 268.806 203.481 259.777 208.166C244.171 216.335 217.529 197.594 183.864 173.809C177.398 169.244 170.71 164.559 163.799 159.873C141.393 144.497 117.203 148.341 89.8925 171.646C66.0373 191.828 42.6281 224.023 19.9991 255.136C-3.63307 287.692 -26.0391 318.325 -47.5533 334.182C-60.1497 343.432 -71.9658 338.747 -79.7689 333.101C-102.175 316.883 -116.555 276.4 -110.647 246.487C-107.637 231.591 -98.3848 212.731 -70.9625 207.685C-50.4516 203.841 -28.4915 198.435 -5.75105 177.773C20.1106 154.227 42.1822 114.945 61.8014 57.5227C71.6109 28.8117 87.5515 5.86684 109.066 -10.7111C126.344 -24.0455 147.412 -33.2955 171.49 -38.341C187.097 -41.5845 202.034 -42.6657 214.63 -42.6657C235.141 -42.6657 249.187 -39.9027 249.41 -39.9027C249.967 -39.7825 310.831 -28.1299 376.489 -24.1656C464.998 -18.7598 519.731 -29.091 539.016 -55.039C558.077 -80.5066 562.536 -114.984 551.835 -154.627C548.156 -168.201 543.363 -180.214 539.127 -189.464H535.337C539.684 -180.335 544.812 -167.841 548.602 -153.666C555.848 -126.877 559.527 -88.315 536.452 -57.2014Z" fill="white"/>
<path fill-rule="evenodd" clip-rule="evenodd" d="M179.628 -9.63082C191.556 -15.8776 204.821 -17.199 217.083 -13.2347C229.122 -9.39056 238.151 -1.34185 243.836 10.6711C261.226 46.8303 245.843 110.379 235.141 144.976C232.354 154.106 228.899 158.911 224.328 159.993C223.66 160.113 222.991 160.233 222.322 160.233C214.896 160.233 206.368 150.851 195.752 139.172L195.569 138.97C185.425 127.798 173.943 115.184 160.12 106.295C137.045 91.3985 125.675 74.7004 126.344 56.4407C127.57 24.6062 166.251 -2.54315 179.628 -9.63082ZM223.66 156.508C226.892 155.668 229.679 151.583 232.02 143.895C256.656 64.3688 248.184 27.3687 240.826 12.4726C235.476 1.42066 227.115 -6.0274 216.08 -9.6313C211.732 -11.0729 207.273 -11.7936 202.703 -11.7936C195.346 -11.7936 187.988 -9.99169 181.077 -6.38779C168.146 0.459621 130.803 26.5278 129.688 56.5603C129.019 73.3785 139.944 89.1156 161.904 103.171C175.929 112.097 187.985 125.385 197.746 136.144L198.021 136.447L198.147 136.586C208.572 148.059 217.553 157.944 223.66 156.508Z" fill="white"/>
<path fill-rule="evenodd" clip-rule="evenodd" d="M185.759 46.1098C189.66 44.0676 194.008 43.5871 198.021 44.9085C201.922 46.23 204.932 48.8728 206.939 52.9572C212.512 64.4897 207.719 84.3112 204.375 95.1229C203.817 97.1651 202.703 99.9281 200.25 100.529C199.916 100.649 199.693 100.649 199.358 100.649C196.598 100.649 193.947 97.7026 190.431 93.7944L190.329 93.6813C187.319 90.3177 183.864 86.4735 179.739 83.8306C172.271 79.0254 168.592 73.4995 168.815 67.3728C169.233 55.8913 183.646 47.3631 185.552 46.2355C185.68 46.1597 185.752 46.1174 185.759 46.1098ZM199.47 96.9261C199.804 96.9261 200.473 95.9651 201.142 93.9228C203.706 85.6339 209.056 65.2118 204.04 54.5202C202.48 51.3968 200.25 49.3546 197.129 48.3936C195.903 48.0332 194.565 47.7929 193.339 47.7929C191.221 47.7929 189.214 48.2734 187.208 49.3546C184.198 51.0364 172.493 58.8449 172.159 67.6144C171.936 72.1793 175.057 76.6241 181.411 80.7085C185.87 83.5917 189.66 87.7962 192.67 91.1599C192.821 91.3229 192.975 91.4892 193.131 91.6576C195.5 94.218 198.319 97.2642 199.47 96.9261Z" fill="white"/>
<path d="M1070.96 24.366C1028.38 40.3432 998.84 86.9537 983.346 162.876C976.211 197.954 958.376 220.058 930.396 228.587C878.004 244.684 794.177 207.684 735.653 142.454C688.723 90.3173 669.885 33.0153 683.93 -14.6763C696.972 -58.8842 700.651 -106.936 694.966 -157.271C693.74 -167.842 692.068 -178.654 690.061 -189.465H686.605C688.723 -178.413 690.396 -167.602 691.622 -156.79C697.307 -106.936 693.628 -59.3647 680.809 -15.6373C666.317 33.3757 685.491 91.879 733.312 145.097C761.181 176.09 796.183 202.158 831.966 218.496C857.382 230.149 881.905 236.035 903.531 236.035C913.564 236.035 922.927 234.714 931.399 232.191C960.159 223.421 979.333 199.756 986.69 163.717C1001.96 89.116 1030.61 43.4666 1072.08 27.8497C1131.16 5.62567 1206.85 47.4309 1268.6 95.8433V91.3985C1206.4 42.9861 1130.71 2.02177 1070.96 24.366Z" fill="white"/>
<path d="M1090.92 -70.8972C1054.91 -63.0887 1027.49 -37.2608 1009.54 5.62563C984.683 64.9698 953.137 106.535 915.682 129.359C875.552 153.746 839.88 149.661 817.028 141.973C789.383 132.603 765.528 112.902 749.81 86.4731C733.535 59.2036 727.516 27.0088 732.978 -4.10489C744.237 -68.7348 748.473 -131.082 745.797 -189.465H742.453C745.129 -131.323 740.893 -69.2153 729.745 -4.82568C724.172 27.249 730.303 60.2848 747.024 88.2751C763.187 115.424 787.711 135.606 816.137 145.217C828.064 149.301 840.326 151.223 852.588 151.223C874.548 151.223 896.731 144.856 917.354 132.363C955.477 109.178 987.47 67.0121 1012.66 6.94707C1030.16 -34.8582 1056.69 -59.8452 1091.59 -67.5335C1119.9 -73.6602 1153.9 -68.1342 1189.9 -51.316C1218.11 -38.2218 1246.64 -18.5205 1268.6 2.98277V-1.82242C1223.23 -44.8289 1150.11 -83.7511 1090.92 -70.8972Z" fill="white"/>
<path d="M1235.5 -75.7023C1197.48 -79.5465 1151.56 -95.4037 1109.42 -119.43C1060.6 -147.3 1019.8 -105.735 972.644 -57.6828C936.75 -21.0432 896.062 20.4017 845.677 35.4179C827.953 40.7036 814.241 37.9406 804.766 27.4893C772.551 -8.42953 794.176 -126.037 808.891 -189.465H805.435C800.976 -170.125 795.848 -145.978 791.835 -120.751C779.462 -42.3062 783.029 8.38866 802.425 30.0121C809.448 37.8205 818.477 41.6647 829.402 41.6647C834.752 41.6647 840.438 40.7036 846.68 38.9017C897.734 23.7653 938.868 -18.0399 974.985 -55.04C1021.25 -102.131 1061.15 -142.855 1107.86 -116.186C1150.89 -91.5595 1196.15 -75.9426 1235.16 -72.0984C1247.31 -70.8971 1258.46 -70.8971 1268.6 -72.0984V-75.7023C1258.68 -74.501 1247.54 -74.501 1235.5 -75.7023Z" fill="white"/>
<path fill-rule="evenodd" clip-rule="evenodd" d="M551.724 888.101C573.015 874.646 609.912 874.286 661.413 887.14C698.31 896.39 729.745 909.364 732.309 910.445C765.416 917.052 769.541 922.938 769.318 927.263C769.095 933.149 760.177 941.198 692.848 952.01C651.046 958.737 601.217 964.263 564.877 968.227L555.848 969.188C549.271 969.909 543.363 970.269 538.012 970.269C517.613 970.269 505.685 964.984 502.564 954.653C496.879 936.032 523.075 906.24 551.724 888.101ZM692.29 948.527C758.394 937.835 765.751 930.027 765.862 927.143C765.862 925.702 763.521 920.416 731.529 914.049L731.194 913.929C731.177 913.923 731.078 913.882 730.901 913.809C727.577 912.442 696.722 899.753 660.744 890.744C641.236 885.819 617.938 881.494 596.758 881.494C580.149 881.494 564.766 884.257 553.507 891.345C539.35 900.355 526.085 912.007 517.055 923.419C507.58 935.553 503.567 946.244 505.797 953.692C509.252 964.744 526.419 968.949 555.514 965.705L564.543 964.744C567.229 964.442 569.987 964.133 572.811 963.817C608.188 959.854 653.681 954.757 692.29 948.527Z" fill="white"/>
<path fill-rule="evenodd" clip-rule="evenodd" d="M576.247 125.516C575.356 115.905 587.506 104.613 612.253 91.7593C628.528 83.3502 647.924 85.9931 661.412 98.6068C672.114 108.578 683.707 122.753 677.91 134.526C673.452 143.656 659.295 148.461 640.456 148.461C627.859 148.461 613.145 146.298 597.762 141.854C583.828 137.889 576.805 132.483 576.247 125.516ZM598.653 138.369C634.213 148.701 668.435 146.178 675.012 132.843C678.691 125.155 673.34 114.343 659.295 101.369C651.491 94.2816 641.793 90.5576 631.984 90.5576C625.741 90.5576 619.499 91.9991 613.702 95.0024C591.073 106.775 578.923 117.467 579.592 125.155C580.038 130.321 586.614 134.886 598.653 138.369Z" fill="white"/>
<path fill-rule="evenodd" clip-rule="evenodd" d="M459.982 688.804C443.595 688.804 426.094 687.002 413.609 681.837C395.773 674.629 394.77 663.577 397.334 655.649C399.898 647.119 405.137 640.873 413.052 637.149C427.209 630.541 449.503 632.103 479.266 641.954C501.226 649.282 519.396 658.532 519.619 658.652C528.983 663.697 529.317 668.502 528.091 671.626C524.413 680.636 501.226 685.921 480.827 687.843C474.473 688.444 467.339 688.804 459.982 688.804ZM414.278 640.51C407.255 643.753 402.573 649.279 400.344 656.848C397.557 666.098 402.35 673.426 414.835 678.591C429.549 684.598 454.742 686.76 480.492 684.357C504.236 682.075 522.518 676.309 524.97 670.302C526.196 667.179 521.849 664.055 518.059 662.013C516.944 661.413 468.565 636.906 433.785 636.906C426.54 636.906 419.851 637.867 414.278 640.51Z" fill="white"/>
</g>
</g>
</g>
</g>
<defs>
<linearGradient id="paint0_linear_314_1592" x1="0" y1="450" x2="860" y2="450" gradientUnits="userSpaceOnUse">
<stop stop-color="#664C99"/>
<stop offset="1" stop-color="#221933"/>
</linearGradient>
<clipPath id="clip0_314_1592">
<rect width="840" height="880" fill="white"/>
</clipPath>
<clipPath id="clip1_314_1592">
<rect width="860" height="900" fill="white"/>
</clipPath>
</defs>
</svg>
