<svg width="27" height="26" viewBox="0 0 27 26" fill="none" xmlns="http://www.w3.org/2000/svg">
<g clip-path="url(#clip0_499_3167)">
<rect x="0.27002" y="-0.00268555" width="25.7452" height="25.7452" rx="4.29086" fill="#FFF4DE"/>
<mask id="mask0_499_3167" style="mask-type:luminance" maskUnits="userSpaceOnUse" x="6" y="6" width="14" height="14">
<rect x="6.96387" y="6.69116" width="12.3577" height="12.3577" fill="white"/>
</mask>
<g mask="url(#mask0_499_3167)">
<path fill-rule="evenodd" clip-rule="evenodd" d="M7.99417 10.3688C7.99424 9.19068 8.94925 8.23572 10.1274 8.23572H16.158C17.3362 8.23572 18.2905 9.19075 18.2907 10.3687M18.2907 10.3687L18.2917 11.7605C18.2918 11.8629 18.2511 11.9612 18.1787 12.0337C18.1063 12.1062 18.008 12.1469 17.9055 12.1469C17.4801 12.1469 17.1383 12.4886 17.1383 12.9136C17.1383 13.3382 17.4802 13.6803 17.9055 13.6803C18.1188 13.6803 18.2917 13.8532 18.2917 14.0665V15.4567C18.2917 16.6349 17.3373 17.59 16.1585 17.59H10.1264C8.94803 17.59 7.99365 16.6348 7.99365 15.4567V14.0665C7.99365 13.8532 8.16655 13.6803 8.37983 13.6803C8.80451 13.6803 9.14652 13.3383 9.14652 12.9136C9.14652 12.5083 8.825 12.1917 8.37983 12.1917C8.27739 12.1917 8.17914 12.151 8.10671 12.0786C8.03429 12.0061 7.99362 11.9078 7.99365 11.8054L7.99417 10.3688C7.99417 10.3688 7.99417 10.3689 7.99417 10.3688M8.76652 10.369L8.76613 11.4655C9.41877 11.6246 9.91888 12.1812 9.91888 12.9136C9.91888 13.6315 9.42977 14.2331 8.76601 14.404V15.4567C8.76601 16.2085 9.37488 16.8176 10.1264 16.8176H16.1585C16.9106 16.8176 17.5194 16.2084 17.5194 15.4567V14.404C16.8552 14.2332 16.366 13.6316 16.366 12.9136C16.366 12.1952 16.8552 11.5941 17.5191 11.4232L17.5183 10.3692C17.5183 9.61745 16.9095 9.00807 16.158 9.00807H10.1274C9.37576 9.00807 8.76652 9.61731 8.76652 10.369ZM7.99417 10.3688L18.2907 10.3687L7.99417 10.3688Z" fill="#FFA800"/>
<path fill-rule="evenodd" clip-rule="evenodd" d="M13.5918 11.0516L13.95 11.7772L14.7523 11.8938C15.1602 11.9543 15.3264 12.4564 15.0288 12.7472L15.0282 12.7477L14.4485 13.3119L14.5855 14.1099C14.6561 14.5219 14.2237 14.8279 13.86 14.6382L13.8588 14.6376L13.1427 14.261L12.4253 14.6382C12.0616 14.8279 11.6292 14.522 11.6998 14.1101L11.8369 13.3118L11.2575 12.7476L11.257 12.7472C10.9594 12.4564 11.1256 11.9543 11.5336 11.8938L11.5346 11.8937L12.3353 11.7772L12.6939 11.0508L12.6944 11.0499C12.8776 10.6812 13.4073 10.6769 13.5915 11.0511C13.5916 11.0513 13.5917 11.0515 13.5918 11.0516ZM12.938 12.3011C12.8817 12.415 12.773 12.494 12.6473 12.5123L12.191 12.5786L12.5213 12.9002C12.6124 12.989 12.654 13.1169 12.6325 13.2423L12.5543 13.6977L12.9629 13.4829C13.0754 13.4237 13.2099 13.4237 13.3224 13.4829L13.7311 13.6978L13.6528 13.2423C13.6313 13.1168 13.6729 12.9889 13.7641 12.9001L14.0945 12.5786L13.638 12.5123C13.5123 12.494 13.4036 12.415 13.3473 12.3011L13.1427 11.8865L12.938 12.3011Z" fill="#FFA800"/>
</g>
</g>
<defs>
<clipPath id="clip0_499_3167">
<rect width="25.7452" height="25.7452" fill="white" transform="translate(0.27002 -0.00268555)"/>
</clipPath>
</defs>
</svg>
